<?xml version="1.0" standalone="no"?>
<!DOCTYPE svg PUBLIC "-//W3C//DTD SVG 20010904//EN"
 "http://www.w3.org/TR/2001/REC-SVG-20010904/DTD/svg10.dtd">
<svg version="1.0" xmlns="http://www.w3.org/2000/svg"
 width="1300.000000pt" height="1300.000000pt" viewBox="0 0 1300.000000 1300.000000"
 preserveAspectRatio="xMidYMid meet">
<metadata>
Created by potrace 1.14, written by Peter Selinger 2001-2017
</metadata>
<g transform="translate(0.000000,1300.000000) scale(0.100000,-0.100000)"
fill="#000000" stroke="none">
<path d="M6220 9998 c-147 -10 -376 -47 -545 -88 -786 -190 -1473 -640 -1972
-1290 -380 -496 -621 -1105 -694 -1755 -7 -60 -13 -215 -13 -342 l-1 -233 225
-224 c123 -124 226 -224 227 -222 2 2 -5 55 -16 117 -27 155 -40 257 -43 362
l-3 87 248 3 249 2 24 28 c31 36 31 78 0 114 l-24 28 -251 3 -250 3 5 67 c32
414 99 709 239 1048 122 294 319 608 537 855 l71 81 102 -102 c81 -81 108
-102 138 -107 31 -5 40 -1 68 26 27 28 31 37 26 68 -5 30 -26 57 -107 138
l-102 102 74 65 c413 366 903 610 1446 723 l116 24 215 216 216 215 -40 -1
c-22 -1 -96 -6 -165 -11z m-2810 -3031 c0 -1 -93 -94 -207 -207 l-208 -205
205 208 c190 192 210 212 210 204z"/>
<path d="M6220 9794 c-198 -199 -212 -216 -180 -210 50 8 202 24 292 30 l77 6
3 -251 3 -251 28 -24 c16 -13 41 -24 57 -24 35 0 78 36 84 70 3 14 5 127 5
251 l1 226 73 -4 c81 -4 242 -20 302 -29 39 -6 36 -3 -175 210 l-215 216 -70
0 -70 0 -215 -216z"/>
<path d="M6803 9792 l219 -219 66 -12 c346 -62 741 -217 1057 -414 162 -102
405 -286 473 -359 l22 -25 -90 -89 c-98 -95 -115 -128 -95 -179 14 -37 65 -57
107 -43 15 5 58 42 96 81 119 125 96 124 200 5 88 -100 109 -128 210 -273 230
-330 402 -731 483 -1123 l19 -97 217 -217 c120 -120 218 -216 220 -214 8 8
-21 301 -43 440 -93 577 -315 1098 -667 1564 -194 257 -431 493 -687 685 -145
108 -149 111 -266 182 -509 313 -1039 479 -1664 520 l-95 7 218 -220z"/>
<path d="M7133 8900 c-34 -20 -40 -38 -142 -375 -16 -55 -57 -188 -90 -295
-32 -107 -109 -359 -171 -560 -61 -201 -121 -399 -134 -440 -13 -41 -45 -148
-72 -237 l-48 -162 -45 -11 c-45 -11 -126 -54 -137 -72 -4 -6 45 -61 107 -124
l114 -114 110 108 110 107 -107 -110 -108 -110 113 -112 112 -112 140 -61 c77
-34 164 -72 193 -85 29 -14 55 -25 57 -25 2 0 29 -11 58 -25 53 -24 212 -93
415 -181 56 -24 110 -45 120 -46 90 -7 151 60 134 148 -6 31 -48 73 -92 91
-19 8 -231 101 -470 205 -239 105 -447 195 -462 200 -22 8 -28 16 -28 39 0 41
-40 135 -76 176 l-30 36 32 106 c18 58 56 183 84 276 29 94 76 249 105 345 29
96 83 274 120 395 37 121 78 254 90 295 13 41 46 152 75 245 130 425 128 414
76 469 -28 31 -40 36 -77 36 -26 0 -57 -8 -76 -20z"/>
<path d="M9573 7019 c8 -23 35 -258 41 -351 l4 -77 -250 -3 -250 -3 -24 -28
c-31 -36 -31 -78 0 -114 l24 -28 248 -3 c136 -1 248 -3 250 -5 7 -7 -20 -284
-41 -412 -30 -180 -26 -164 -63 -300 -128 -465 -349 -881 -659 -1238 l-85 -99
-98 96 c-92 91 -108 101 -155 96 -23 -2 -63 -38 -65 -60 -7 -49 4 -67 96 -160
l96 -98 -89 -77 c-353 -309 -784 -541 -1228 -660 l-100 -27 -215 -211 -215
-212 205 208 c113 115 196 206 185 203 -50 -14 -334 -56 -417 -61 -51 -4 -112
-8 -135 -10 l-42 -3 -3 250 -3 250 -28 24 c-36 31 -78 31 -114 0 l-28 -24 -3
-248 c-2 -137 -4 -249 -5 -250 -8 -7 -290 21 -406 40 l-143 23 230 -230 230
-230 211 5 c206 4 211 4 238 28 28 25 28 25 8 1 l-20 -23 65 6 c450 47 836
156 1225 346 921 450 1603 1290 1854 2283 51 199 101 499 101 607 0 21 -39
-14 -227 -200 l-228 -225 230 232 229 232 4 158 4 158 -223 220 c-122 121
-219 213 -216 204z"/>
<path d="M6252 6703 c-10 -16 -29 -53 -41 -83 -20 -46 -23 -66 -19 -135 8
-136 67 -229 183 -286 74 -36 180 -34 258 5 31 16 66 40 79 53 l22 24 -109
109 c-60 60 -113 106 -119 103 -6 -3 -7 -2 -3 2 7 8 -210 235 -225 235 -3 0
-15 -12 -26 -27z m238 -226 c0 -1 -48 -50 -107 -107 l-108 -105 105 108 c97
99 110 112 110 104z"/>
<path d="M3000 6240 c0 -97 49 -403 95 -589 190 -770 651 -1468 1288 -1949 80
-60 147 -106 325 -221 64 -42 353 -186 442 -221 47 -18 99 -39 115 -46 57 -24
281 -93 382 -119 148 -37 421 -82 543 -90 l105 -7 -225 226 -225 225 -119 31
c-309 80 -600 205 -873 373 -113 71 -346 245 -431 324 l-64 58 101 100 c83 82
103 107 107 137 6 32 2 41 -24 68 -21 21 -40 30 -63 30 -27 0 -48 -15 -138
-105 l-107 -105 -40 43 c-201 211 -427 562 -560 867 -45 106 -123 335 -155
457 l-23 93 -228 227 c-224 224 -228 227 -228 193z"/>
</g>
</svg>
